<?xml version="1.0" encoding="UTF-8" standalone="no"?>
<svg
   xmlns:dc="http://purl.org/dc/elements/1.1/"
   xmlns:cc="http://creativecommons.org/ns#"
   xmlns:rdf="http://www.w3.org/1999/02/22-rdf-syntax-ns#"
   xmlns:svg="http://www.w3.org/2000/svg"
   xmlns="http://www.w3.org/2000/svg"
   xmlns:sodipodi="http://sodipodi.sourceforge.net/DTD/sodipodi-0.dtd"
   xmlns:inkscape="http://www.inkscape.org/namespaces/inkscape"
   id="Warstwa_1"
   data-name="Warstwa 1"
   viewBox="0 0 1610 1143"
   version="1.1"
   sodipodi:docname="irif.svg"
   inkscape:version="0.92.3 (2405546, 2018-03-11)"
   width="1610"
   height="1143">
  <metadata
     id="metadata146">
    <rdf:RDF>
      <cc:Work
         rdf:about="">
        <dc:format>image/svg+xml</dc:format>
        <dc:type
           rdf:resource="http://purl.org/dc/dcmitype/StillImage" />
        <dc:title />
      </cc:Work>
    </rdf:RDF>
  </metadata>
  <sodipodi:namedview
     pagecolor="#ffffff"
     bordercolor="#666666"
     borderopacity="1"
     objecttolerance="10"
     gridtolerance="10"
     guidetolerance="10"
     inkscape:pageopacity="0"
     inkscape:pageshadow="2"
     inkscape:window-width="1916"
     inkscape:window-height="1033"
     id="namedview144"
     showgrid="false"
     inkscape:zoom="0.16295495"
     inkscape:cx="2928.652"
     inkscape:cy="-5.5799109"
     inkscape:window-x="0"
     inkscape:window-y="22"
     inkscape:window-maximized="0"
     inkscape:current-layer="Warstwa_1" />
  <defs
     id="defs71">
    <style
       id="style69">.cls-1{fill:#fff;}</style>
  </defs>
  <path
     style="fill:#2e3440"
     d="m 14.769695,1137.0174 c -1.776668,-0.7724 -4.137486,-2.8922 -5.2462623,-4.7108 -1.9410172,-3.1837 -2.0160955,-4.9534 -2.0196946,-47.6063 -0.00403,-47.7664 0.022244,-48.0216 5.2989509,-51.4791 6.327545,-4.1459 14.034454,-2.3991 18.427378,4.1767 L 33.5,1040.7958 v 43.451 c 0,49.2889 0.101536,48.5734 -7.40869,52.209 -4.921515,2.3825 -6.906619,2.4809 -11.321615,0.5616 z M 131.5,1136.2242 c -13.64557,-4.6693 -23.99353,-13.323 -29.8094,-24.9287 -11.042165,-22.035 -7.322474,-48.5861 9.12513,-65.1349 20.68126,-20.8085 53.32477,-21.1331 73.77294,-0.7336 10.60498,10.5798 15.40644,23.001 15.3036,39.59 -0.15435,24.8992 -15.93967,45.9626 -38.93382,51.9518 -8.75866,2.2813 -21.56102,1.9577 -29.45845,-0.7446 z m 26.55561,-25.0979 c 17.02653,-7.9285 20.97393,-33.8801 7.20395,-47.3614 C 159.90861,1058.5262 155.09498,1056.5 148,1056.5 c -7.09498,0 -11.90861,2.0262 -17.25956,7.2649 -10.47181,10.2523 -11.17425,29.4428 -1.49177,40.7546 4.6074,5.3827 12.09513,8.961 18.75133,8.961 3.15239,0 6.86816,-0.87 10.05561,-2.3542 z m 82.05927,25.2854 c -5.65873,-4.4511 -5.6152,-4.0508 -5.61114,-51.612 0.004,-41.6773 0.0983,-43.9548 1.95578,-47.0012 2.46397,-4.041 6.77946,-6.2985 12.04048,-6.2985 4.80675,0 8.49017,1.7221 12.108,5.6607 1.4344,1.5616 10.29183,13.5432 19.68318,26.6258 l 17.07518,23.7866 0.31682,-23.2866 c 0.27185,-19.981 0.56763,-23.7454 2.08375,-26.5196 4.44876,-8.1402 17.08708,-8.2844 21.24577,-0.2423 1.34091,2.593 1.50937,8.9647 1.26693,47.9182 L 322,1130.3703 l -2.91495,3.0417 c -5.70968,5.9581 -12.95462,6.3364 -19.03896,0.9943 -1.81794,-1.5961 -11.57201,-14.425 -21.67572,-28.5086 L 260,1080.2912 l -0.5,24.8544 c -0.34511,17.1552 -0.88525,25.5274 -1.74368,27.0268 -3.60768,6.3019 -12.34888,8.4024 -17.64144,4.2393 z m 242.60191,0.5276 c -1.22551,-0.8584 -2.90064,-2.861 -3.7225,-4.4503 -3.20276,-6.1935 -2.3348,-9.0802 15.54387,-51.6966 9.37099,-22.3372 17.75699,-41.8299 18.63555,-43.3172 4.90766,-8.308 20.60488,-8.5844 25.93043,-0.4566 0.89264,1.3623 9.49425,21.2416 19.11469,44.176 15.34689,36.586 17.42646,42.1855 16.95967,45.6657 -1.43805,10.7215 -13.92422,15.2549 -21.38959,7.766 -1.55092,-1.5558 -4.1206,-6.4199 -5.78891,-10.9577 l -3,-8.16 h -19.25 c -10.74452,0 -19.25,0.3934 -19.25,0.8957 0,0.4951 -1.63909,4.8156 -3.64243,9.6013 -2.76488,6.605 -4.3911,9.1579 -6.75,10.5963 -3.77128,2.2996 -10.35553,2.4677 -13.39078,0.3417 z M 534.5,1089.4677 c 0,-0.5677 -1.32883,-4.5052 -2.95295,-8.75 -1.62412,-4.2447 -3.45903,-9.0677 -4.07758,-10.7177 -1.09759,-2.9279 -1.23099,-2.7236 -5.54705,8.4958 -2.43233,6.3227 -4.42242,11.6102 -4.42242,11.75 0,0.1398 3.825,0.2542 8.5,0.2542 5.17709,0 8.5,-0.4035 8.5,-1.0323 z m 80.10812,47.3695 c -2.2565,-1.1472 -4.02727,-3.1609 -5.2901,-6.0157 -1.78481,-4.0348 -1.8809,-6.8793 -1.60813,-47.6019 0.31838,-47.5311 0.1594,-46.2946 6.48462,-50.439 3.83546,-2.5131 13.35648,-2.3798 16.85937,0.2361 1.46074,1.0908 7.97744,11.1979 14.48156,22.4602 6.50412,11.2622 12.19442,20.5829 12.64512,20.7126 0.45069,0.1297 5.90588,-8.6915 12.12264,-19.6025 6.21675,-10.9111 12.38957,-20.8589 13.71736,-22.1063 2.96473,-2.7852 11.0536,-3.8139 15.50175,-1.9715 1.67501,0.6939 3.93023,2.3863 5.01158,3.761 1.88896,2.4014 1.96596,4.2699 1.96237,47.6147 -0.004,42.3762 -0.11776,45.3021 -1.88194,48.1951 -3.88893,6.3774 -12.63616,7.9438 -18.51919,3.3162 -4.75472,-3.7401 -5.04828,-5.2062 -5.5858,-27.8962 L 680,1086 l -6.8647,11.3345 c -7.21763,11.9171 -10.66746,15.158 -16.1353,15.158 -5.34227,0 -8.81972,-3.2234 -16.07259,-14.8986 L 634,1086.4427 l -0.5,21.2787 c -0.31511,13.4103 -0.92826,22.0181 -1.65818,23.2786 -3.77173,6.5132 -11.05297,8.9794 -17.2337,5.8372 z m 249.29315,-0.2342 c -6.1865,-3.7725 -6.40127,-5.5056 -6.40127,-51.6554 0,-44.7902 0.0742,-45.4873 5.36343,-50.3647 1.8999,-1.752 4.12018,-2.5414 8.06858,-2.8688 8.74397,-0.7251 10.18409,0.6543 31.30765,29.9894 L 921,1087.7567 l 0.5,-23.8783 c 0.32186,-15.3712 0.91234,-24.5949 1.65738,-25.8896 3.31825,-5.7662 10.48647,-8.0171 16.17045,-5.0778 6.48084,3.3513 6.29472,1.815 6.20293,51.203 -0.0759,40.8187 -0.23914,45.0614 -1.84102,47.8385 -3.72198,6.4528 -12.69672,8.1709 -19.05008,3.6469 -1.6247,-1.1568 -11.51666,-14.0449 -21.98213,-28.64 l -19.02812,-26.5366 -0.3147,24.2886 c -0.27138,20.9442 -0.55801,24.7338 -2.08164,27.5217 -3.2937,6.0267 -11.30308,8.0461 -17.3318,4.3699 z m 150.86843,0.4608 c -1.7767,-0.7979 -4.1375,-2.9386 -5.2463,-4.7572 -1.9218,-3.1522 -2.0161,-4.976 -2.0197,-39.0566 v -35.75 h -10.35212 c -9.12026,0 -10.75644,-0.2716 -13.75,-2.2826 -3.99743,-2.6854 -6.57652,-8.8774 -5.49402,-13.1904 0.39271,-1.5647 2.2175,-4.3484 4.05508,-6.1859 L 985.3,1032.5 l 34.35,0.035 c 26.0139,0.027 34.9107,0.3466 36.6602,1.3175 5.7201,3.1741 7.9267,11.8981 4.4837,17.7266 -2.6823,4.5408 -6.8058,5.9205 -17.695,5.9205 H 1033.5 v 35.0989 c 0,37.979 -0.2398,39.8625 -5.5158,43.3195 -3.5103,2.3 -9.4894,2.8183 -13.2145,1.1454 z m 66.8251,-1.1375 c -4.0562,-3.4131 -5.7904,-9.1614 -4.2823,-14.1948 0.621,-2.0727 8.7832,-21.9852 18.1382,-44.25 11.816,-28.1219 17.7835,-41.158 19.5452,-42.6972 3.3404,-2.9186 9.6237,-4.538 14.2689,-3.6775 7.6479,1.4168 9.4083,4.455 27.1703,46.8932 8.9777,21.45 16.9467,40.2283 17.7091,41.7295 2.0944,4.1247 0.7171,10.4056 -3.225,14.7072 -2.9092,3.1745 -3.8114,3.5633 -8.269,3.5633 -7.3081,0 -9.8671,-2.3423 -14.57,-13.3365 l -3.9198,-9.1635 h -18.6878 -18.6878 l -3.721,8.9772 c -4.5009,10.859 -7.674,14.0228 -14.0638,14.0228 -3.2106,0 -5.1459,-0.6727 -7.4052,-2.5737 z m 52.4492,-47.2876 c -0.3249,-1.0237 -2.306,-6.2695 -4.4024,-11.6573 l -3.8117,-9.796 -4.1649,10.747 c -2.2908,5.9108 -4.165,11.1566 -4.165,11.6573 0,0.5006 3.8553,0.9103 8.5674,0.9103 7.8995,0 8.5213,-0.1451 7.9766,-1.8613 z m -764.12556,47.8924 c -1.14486,-0.4631 -3.28236,-2.2691 -4.75,-4.0133 L 362.5,1129.3465 v -43.9729 c 0,-48.2421 0.004,-48.2727 5.96727,-51.3567 4.07583,-2.1077 40.04292,-2.1558 47.90177,-0.064 21.70466,5.7769 36.02333,23.5529 37.72546,46.8345 1.94327,26.58 -14.03085,49.3609 -38.68757,55.1729 -7.06158,1.6645 -41.7102,2.0994 -45.48849,0.5709 z m 43.12243,-27.398 c 8.48237,-3.9499 12.98493,-10.8028 14.09865,-21.4583 1.21252,-11.6008 -4.13767,-22.4151 -13.64754,-27.5857 -4.59597,-2.4988 -6.74368,-2.9778 -15.17289,-3.3837 L 388.5,1056.2326 v 27.6337 27.6337 l 9.75,-0.01 c 8.1193,-0.01 10.59309,-0.4023 14.79087,-2.3571 z m 342.10168,27.3387 c -1.5716,-0.471 -3.7712,-1.6698 -4.88802,-2.6641 -4.59102,-4.0872 -4.75582,-5.8118 -4.73257,-49.5256 0.0202,-38.0135 0.16854,-41.6048 1.87315,-45.358 3.24477,-7.1442 4.66081,-7.4241 37.55568,-7.4241 23.06033,0 29.19506,0.2826 31.45037,1.4489 7.77231,4.0192 8.83668,15.2281 1.99286,20.9868 l -3.04747,2.5643 H 793.92327 772.5 v 7.5 7.5 h 17.03212 c 12.12004,0 17.97331,0.3933 20.2956,1.3636 8.22954,3.4385 9.65105,15.1107 2.5663,21.0721 -3.02967,2.5493 -3.15506,2.5643 -21.47075,2.5643 l -18.42327,0 v 7.9468 7.9468 l 22.58384,0.3032 22.58384,0.3032 3.02827,3.3913 c 2.74856,3.078 2.98717,3.8869 2.58326,8.7576 -0.52282,6.3045 -3.22295,9.8242 -8.70495,11.347 -4.33823,1.2052 -55.39888,1.1844 -59.43171,-0.024 z m 461.81985,-0.01 c -1.6706,-0.5023 -4.3706,-2.3043 -6,-4.0045 l -2.9624,-3.0913 -0.2978,-42.6852 c -0.1638,-23.4769 -0.04,-44.0973 0.2743,-45.8231 0.7132,-3.9121 4.6119,-7.9061 9.1932,-9.4181 4.8561,-1.6026 11.4789,0.9424 14.2905,5.4915 1.9532,3.1604 2.0398,4.8139 2.0398,38.9325 v 35.632 h 18.5321 c 13.3867,0 19.4382,0.3786 21.7956,1.3636 8.6347,3.6078 9.6853,16.9912 1.7569,22.3798 -2.2853,1.5532 -5.6534,1.7786 -29.0846,1.9463 -14.575,0.1043 -27.8669,-0.2213 -29.5376,-0.7235 z m 104.4792,0.1139 c -4.61,-1.4499 -6.8975,-3.0941 -8.4312,-6.0601 -1.2799,-2.475 -1.5104,-9.6222 -1.5104,-46.8355 0,-43.0195 0.043,-43.9689 2.0883,-46.5696 4.2846,-5.447 5.3906,-5.6161 36.612,-5.6002 31.533,0.016 32.121,0.1125 36.0197,5.8978 2.6928,3.9958 2.8951,7.9889 0.6452,12.7304 -2.8069,5.9151 -4.7756,6.3571 -28.3155,6.3571 H 1337.5 v 7.5 7.5 h 17.75 c 15.8406,0 18.0944,0.2138 20.9515,1.9558 5.7457,3.5034 7.6589,9.849 4.9349,16.3682 -2.5822,6.1801 -4.434,6.6723 -25.1012,6.6723 H 1337.5 v 8 8 h 21.5957 c 23.3962,0 25.7093,0.4644 28.5259,5.7273 2.7718,5.1791 0.7641,13.7574 -3.9727,16.974 -2.3788,1.6153 -5.5548,1.8183 -31.1489,1.9911 -15.675,0.1058 -29.6513,-0.1697 -31.0584,-0.6123 z m -1274.043717,-44.35 c -8.665568,-5.789 -8.80222,-17.8153 -0.265984,-23.4085 4.136088,-2.71 11.45528,-2.2552 15.690386,0.9751 13.572502,10.3522 -1.24636,31.9049 -15.424402,22.4334 z m 0.406451,-35.6861 c -12.210958,-7.4455 -7.530888,-25.4286 6.617744,-25.4286 14.227342,0 19.013004,17.9658 6.773588,25.4286 -1.757616,1.0717 -4.770666,1.9485 -6.695666,1.9485 -1.925,0 -4.93805,-0.8768 -6.695666,-1.9485 z M 1355.222,965.36452 c -5.5664,-4.15204 -7.1795,-10.99071 -4.1155,-17.44763 4.4109,-9.29545 18.1631,-9.8029 24.0058,-0.88579 3.6867,5.62649 1.2916,15.3223 -4.6521,18.83336 -3.9629,2.3409 -11.7731,2.08465 -15.2382,-0.49994 z M 1305,948.4609 c -19.5414,-4.00585 -34.8323,-18.78203 -40.0109,-38.66409 -1.9274,-7.39962 -1.9063,-22.2748 0.042,-29.75526 2.3467,-9.0096 7.2569,-17.37841 14.4421,-24.61455 10.1387,-10.21059 21.6184,-14.89306 36.5666,-14.91513 24.2608,-0.0358 43.2563,14.19863 50.027,37.48813 2.101,7.22667 2.3517,23.44119 0.4871,31.5 -3.4284,14.81793 -12.9845,27.63168 -25.2209,33.81847 -10.5352,5.32665 -25.2646,7.41139 -36.3331,5.14243 z m 22,-27.82656 c 9.6899,-4.41313 15.1447,-15.32328 14.2767,-28.55496 -1.3096,-19.96339 -18.7637,-31.92093 -35.3323,-24.20568 -9.6641,4.50013 -15.4497,14.26375 -15.4388,26.05444 0.011,12.08689 4.8612,21.11088 13.8586,25.78512 6.6086,3.43325 16.2577,3.82588 22.6358,0.92108 z M 126.57108,946.74845 c -1.8859,-0.96165 -4.3609,-3.01841 -5.5,-4.57059 -2.00545,-2.7327 -2.08052,-4.15879 -2.36904,-45 -0.16387,-23.19782 -0.0335,-43.62711 0.28979,-45.39842 1.90216,-10.42286 15.51499,-14.62125 23.77955,-7.33395 1.77574,1.56577 11.10362,13.89561 20.72862,27.39964 9.625,13.50404 17.8375,24.57576 18.25,24.60383 0.4125,0.0281 0.75168,-10.41146 0.75374,-23.19896 0.003,-21.55587 0.15079,-23.4912 2.02189,-26.56018 2.78877,-4.57412 8.18292,-6.74352 13.1026,-5.26955 2.04841,0.61372 4.88254,2.49225 6.29807,4.17452 l 2.5737,3.05866 v 44.47294 c 0,49.08848 0.0668,48.53294 -6.29855,52.41409 -5.5064,3.35746 -11.99935,2.39995 -16.88167,-2.48951 -1.47412,-1.47627 -10.69912,-13.89668 -20.5,-27.60089 -9.80088,-13.70421 -18.15728,-24.92425 -18.56978,-24.93342 -0.4125,-0.009 -0.75168,10.89584 -0.75374,24.23334 -0.003,22.55889 -0.14448,24.48084 -2.02189,27.56018 -1.84791,3.03093 -7.0544,6.19207 -10.19225,6.18827 -0.70517,-8.6e-4 -2.82513,-0.78836 -4.71104,-1.75 z m 173.26302,-0.31213 c -7.544,-3.73425 -7.43174,-2.89287 -7.11411,-53.32096 L 293,848.65947 l 2.5,-2.70861 c 6.85322,-7.4251 17.40696,-6.43505 21.41385,2.00883 1.37346,2.89435 1.58565,9.22245 1.58241,47.19144 -0.004,41.13736 -0.11988,44.03933 -1.88194,46.92891 -1.91219,3.13577 -7.4211,6.4206 -10.76545,6.41917 -1.01688,-4.3e-4 -3.72353,-0.92874 -6.01477,-2.06289 z m 70.92213,0.41902 c -1.78407,-0.87951 -4.14657,-3.05988 -5.25,-4.84526 -1.92905,-3.12127 -2.00623,-4.94577 -2.00623,-47.42777 0,-48.11289 -0.0303,-47.83817 5.69889,-51.64801 4.10856,-2.73214 12.89505,-2.57169 16.94112,0.30936 1.70726,1.21568 11.37419,13.73556 21.48205,27.82195 L 426,896.67722 l 0.5,-23.38635 c 0.44646,-20.88197 0.70613,-23.70251 2.42486,-26.33861 2.50733,-3.84562 4.36775,-5.17626 8.27246,-5.91677 4.43046,-0.84021 9.83501,1.64891 12.27705,5.65433 1.9421,3.18543 2.01829,4.94381 2.02189,46.65905 0.003,38.42664 -0.18588,43.74847 -1.66622,46.86806 -3.35258,7.06502 -12.75609,9.51171 -19.34387,5.03307 -1.90781,-1.29701 -11.39444,-13.52565 -22.39788,-28.87177 L 389,889.75646 l -0.5,25.12177 c -0.55533,27.90156 -0.77986,28.86583 -7.45969,32.03562 -4.16899,1.97831 -6.17559,1.9669 -10.28408,-0.0585 z m 127.61657,-0.039 c -5.95759,-3.69746 -5.8728,-2.9455 -5.8728,-52.08577 0,-44.08033 0.0409,-45.01285 2.0883,-47.61569 6.30798,-8.0193 17.4867,-7.20896 22.00687,1.59528 1.78682,3.48031 1.9046,6.39212 1.90109,47 -0.004,41.17165 -0.0992,43.44649 -1.95578,46.49129 -3.61216,5.92415 -12.44345,8.16742 -18.16768,4.61484 z m 117.37787,0.19941 c -16.35124,-4.59253 -29.13367,-16.40472 -35.0281,-32.36934 -3.01996,-8.17934 -4.04268,-22.24866 -2.28047,-31.37166 3.8994,-20.18719 20.17053,-37.2175 39.92578,-41.78867 7.79972,-1.80477 23.15422,-0.79953 30.47229,1.99498 14.51857,5.54414 25.97196,17.52679 30.73061,32.15066 3.2738,10.06077 3.35171,25.19153 0.18234,35.40986 -4.91267,15.83884 -16.86407,28.60444 -32.4719,34.68405 -6.97697,2.71769 -23.97198,3.41307 -31.53055,1.29012 z m 24.30494,-25.8894 c 10.5492,-4.91228 16.02942,-15.16768 15.22946,-28.49967 C 654.30799,876.34279 644.97061,866.5 630.5,866.5 c -7.58579,0 -12.31512,1.93463 -17.75956,7.26493 -10.39844,10.18043 -11.0607,29.5754 -1.39545,40.86708 4.5187,5.27908 12.04393,8.84845 18.65501,8.84845 3.15239,0 6.86816,-0.86991 10.05561,-2.35416 z m 87.84065,25.992 c -1.70706,-0.76932 -4.18206,-2.91066 -5.5,-4.75853 L 720,939 v -43.5 c 0,-39.70081 0.15432,-43.78237 1.76693,-46.73307 3.33688,-6.10573 5.06464,-6.42814 32.5806,-6.07973 l 24.70396,0.3128 6.76727,3.33384 c 12.22292,6.02152 17.68124,15.8498 17.68124,31.83693 0,12.46664 -4.60862,22.8802 -12.48377,28.20813 -1.93393,1.3084 -3.51623,2.72592 -3.51623,3.15005 0,0.42412 2.86096,4.31462 6.35768,8.64555 9.87901,12.23579 10.98425,15.17804 8.2025,21.83572 -2.72273,6.51641 -11.84799,9.46079 -18.5615,5.9891 -1.65805,-0.85741 -7.51039,-7.71587 -13.65285,-16 L 759.09499,915.5 H 752.7975 746.5 l -0.002,10.75 c -0.002,11.77665 -1.311,16.00659 -6.0219,19.45502 -3.41776,2.50184 -8.81856,3.10857 -12.58029,1.41328 z m 39.57538,-57.56811 c 8.40401,-1.62137 12.40599,-9.55168 8.56678,-16.9759 C 773.76417,868.17638 768.22838,866.5 755.97976,866.5 H 745.5 v 11.33333 c 0,6.23334 0.3,11.63334 0.66667,12 0.9458,0.94581 15.96995,0.74614 21.30497,-0.28314 z m 212.29805,57.46722 c -4.12159,-1.79177 -7.26116,-6.92898 -7.26595,-11.88913 -0.003,-2.75602 4.78445,-15.29118 16.61243,-43.5 9.1389,-21.79555 17.48203,-41.33343 18.54033,-43.41751 2.653,-5.22449 7.0659,-7.70241 13.7255,-7.70703 6.5783,-0.005 10.8453,2.37347 13.8105,7.69685 1.164,2.08968 9.6354,21.75318 18.8254,43.69668 15.3038,36.54187 16.6657,40.28148 16.1941,44.46565 -0.7195,6.38299 -5.8229,11.13871 -11.9473,11.13334 -7.9383,-0.007 -9.8849,-2.1408 -16.6655,-18.2685 l -2.0064,-4.77223 -18.6413,0.27223 -18.6412,0.27224 -3.38929,8.40374 c -3.8196,9.47068 -5.52563,11.78169 -10.13889,13.73428 -3.94714,1.67064 -4.92204,1.6576 -9.01243,-0.12061 z M 1028.3779,894.25 c -1.1511,-2.8875 -3.0343,-7.8375 -4.1848,-11 -1.1505,-3.1625 -2.3397,-5.74399 -2.6425,-5.73664 -0.3028,0.007 -2.4156,4.95735 -4.695,11 L 1012.7113,899.5 h 8.8798 8.8797 z m 181.5184,52.8683 c -1.7071,-0.76932 -4.1821,-2.91066 -5.5,-4.75853 L 1202,939 v -44 c 0,-42.38401 0.074,-44.12854 2.0278,-47.5 5.4449,-9.39777 18.0949,-8.637 22.8454,1.37393 1.4229,2.99868 1.6266,8.73562 1.6252,45.7772 0,38.34194 -0.1669,42.6733 -1.75,45.77779 -3.3435,6.55708 -10.682,9.47006 -16.8521,6.68938 z m 219.0737,-0.6432 c -12.0031,-3.80708 -20.5351,-12.42325 -24.6928,-24.93641 -2.0033,-6.02934 -2.2019,-8.96843 -2.5498,-37.72974 -0.3396,-28.08736 -0.2036,-31.55693 1.3677,-34.86806 5.3134,-11.19724 21.6092,-9.09969 24.4498,3.14712 0.4991,2.15159 0.9181,16.07914 0.9312,30.9501 0.023,26.04381 0.1066,27.20004 2.2739,31.44146 3.3998,6.65358 6.5929,8.52043 14.5733,8.52043 7.8581,0 11.8036,-2.19356 14.8034,-8.23031 1.6697,-3.36003 1.9276,-7.08936 2.3733,-34.31707 0.4414,-26.9695 0.7066,-30.86229 2.2639,-33.23607 5.5997,-8.53541 17.3413,-8.39181 21.9013,0.26785 1.6588,3.15019 1.8331,6.26743 1.8174,32.5 -0.019,32.53195 -0.7837,38.61005 -6.1116,48.60634 -5.0864,9.54295 -14.1245,16.34348 -25.0796,18.87047 -7.1725,1.65448 -21.5774,1.15291 -28.3214,-0.98611 z m -308.1715,-0.93462 c -6.2371,-3.80299 -6.2985,-4.22713 -6.2985,-43.49082 V 866.5 h -11.1 -11.1 l -3.4,-3.4 c -2.8917,-2.89168 -3.4,-4.09514 -3.4,-8.04966 0,-5.75838 2.1269,-10.0475 5.9673,-12.03341 4.25,-2.19777 67.6994,-2.25778 71.9339,-0.068 6.0188,3.11245 8.5668,11.52393 5.3166,17.55111 -2.93,5.43338 -7.0552,6.99663 -18.4678,6.99845 l -9.75,0.002 v 35.25 c 0,33.19759 -0.1174,35.4364 -1.9558,38.45145 -3.7297,6.11697 -11.6495,8.05384 -17.742,4.33903 z M 13.577265,944.69915 c -1.882504,-1.01952 -4.2541755,-3.39391 -5.2703813,-5.27642 -1.728958,-3.20286 -1.8302781,-6.22801 -1.5772653,-47.09301 L 7,848.65944 l 2.5,-2.7086 c 4.756794,-5.1537 6.719275,-5.45084 36,-5.45084 20.737727,0 27.835638,0.32231 30.364218,1.37882 10.908232,4.55775 10.114179,20.4499 -1.178494,23.58635 -2.027148,0.56302 -12.367938,1.02619 -22.979534,1.02925 L 32.412381,866.5 32.70619,873.75 33,881 l 19.334577,0.5 19.334576,0.5 2.915424,3.26578 c 5.295621,5.93201 3.471703,16.31877 -3.441655,19.59938 C 68.359776,906.18584 64.315899,906.5 50.098871,906.5 H 32.5 v 7.5 7.5 h 21.098871 c 23.496562,0 26.645533,0.67126 29.556554,6.30056 2.409915,4.66026 1.295627,11.2096 -2.564155,15.07108 L 77.464287,946 47.232144,946.27642 c -27.848854,0.25463 -30.501968,0.13029 -33.654879,-1.57727 z m 831.558575,-0.66084 c -1.46092,-1.35393 -3.10163,-3.63323 -3.64603,-5.0651 -0.59783,-1.57243 -0.98833,-19.70509 -0.98607,-45.78831 0.004,-41.06757 0.0994,-43.34187 1.95578,-46.38635 2.64074,-4.33096 6.85017,-6.29855 13.47504,-6.29855 4.64942,0 6.00916,0.43953 8.50753,2.75 1.6355,1.5125 8.21864,11.88646 14.6292,23.05324 6.41056,11.16678 11.78662,20.16678 11.94679,20 0.16018,-0.16678 5.32947,-9.07824 11.48732,-19.80324 6.15785,-10.725 12.1363,-20.52007 13.28546,-21.76682 4.78324,-5.18948 14.3471,-5.31491 20.00336,-0.26234 l 3.20578,2.86363 0.30628,43.33276 c 0.20378,28.82984 -0.0533,44.56318 -0.76806,47.00907 -3.09512,10.59121 -17.76065,12.16271 -23.29454,2.49615 -0.84016,-1.46759 -1.40591,-9.29806 -1.74368,-24.1342 l -0.5,-21.96174 -6.81837,11.19294 c -7.17445,11.77749 -9.88895,14.6779 -14.73275,15.74178 -5.8938,1.29449 -9.72614,-1.87219 -17.94888,-14.83127 l -7.5,-11.82005 -0.5,22.32005 c -0.33078,14.76626 -0.90929,23.03358 -1.70939,24.42842 -3.33524,5.81446 -13.77336,7.45387 -18.65477,2.92993 z m 686.66266,0.50217 C 1525.45,940.66952 1525.5,941.07506 1525.5,893.5 c 0,-46.92729 -0.023,-46.72342 5.6989,-50.6015 2.5608,-1.73566 5.2583,-1.92472 31.4499,-2.20421 31.9977,-0.34144 34.1722,0.003 37.8256,5.99553 4.1328,6.77867 1.1229,16.04735 -6.009,18.50374 -2.2038,0.75903 -10.6715,1.2141 -23.2592,1.25 l -19.7938,0.0564 0.2938,7.25 0.2938,7.25 18.32,0.27283 c 14.9014,0.22192 18.783,0.57619 20.8011,1.8985 5.3967,3.536 6.9151,11.29681 3.3533,17.13885 -3.277,5.37492 -6.6924,6.18982 -25.9423,6.18982 H 1551.5 v 7.5 7.5 h 21.3521 c 20.5314,0 21.4814,0.0871 24.7145,2.2659 7.2759,4.90319 7.2944,15.58358 0.035,20.45417 -3.3467,2.2456 -3.8436,2.27987 -33,2.27619 -27.5959,-0.003 -29.8191,-0.13603 -32.8036,-1.95578 z M 532.39788,902.23007 c -4.54294,-3.03488 -7.13019,-8.1847 -6.54029,-13.01817 0.9247,-7.57676 6.02206,-12.09652 13.64241,-12.09652 7.62035,0 12.71771,4.51976 13.64241,12.09652 0.91756,7.51829 -6.01586,15.2881 -13.64241,15.2881 -2.18646,0 -5.09648,-0.93008 -7.10212,-2.26993 z m 0,-36 c -4.54294,-3.03488 -7.13019,-8.1847 -6.54029,-13.01817 0.9247,-7.57676 6.02206,-12.09652 13.64241,-12.09652 7.62035,0 12.71771,4.51976 13.64241,12.09652 0.91756,7.51829 -6.01586,15.2881 -13.64241,15.2881 -2.18646,0 -5.09648,-0.93008 -7.10212,-2.26993 z M 1123.5711,756.78354 c -1.8859,-0.98095 -4.3609,-3.0535 -5.5,-4.60568 -2.0055,-2.7327 -2.0805,-4.15879 -2.3691,-45 -0.1638,-23.19782 -0.033,-43.62711 0.2898,-45.39842 0.3233,-1.77131 1.7096,-4.55377 3.0807,-6.18325 5.5179,-6.55764 14.901,-6.27469 20.1512,0.60767 2.7211,3.56694 2.7834,3.95409 3.1311,19.46773 l 0.3548,15.82841 h 15.8054 15.8055 l 0.3398,-15.25 c 0.2921,-13.11313 0.6238,-15.74043 2.3675,-18.75 4.027,-6.95048 12.7675,-8.70199 18.9919,-3.80582 5.3781,4.23043 5.4804,5.183 5.4787,51.0237 0,46.58166 -8e-4,46.57479 -6.3223,51.21104 -3.5154,2.5782 -10.1505,2.61682 -14.0197,0.0816 -5.1888,-3.39983 -6.0492,-6.55671 -6.4756,-23.76052 l -0.3904,-15.75 h -15.8073 -15.8074 l -0.3486,15.75 c -0.2744,12.40146 -0.7075,16.4094 -2.0367,18.8515 -3.3632,6.17891 -10.8636,8.72789 -16.7193,5.68204 z m -826.70439,-1.2016 C 290.23696,751.53931 290.5,753.65959 290.5,704.26281 v -44.79218 l 3.42131,-3.73532 3.42131,-3.73531 22.5963,-0.30331 c 25.98051,-0.34873 31.71047,0.56497 40.26431,6.42054 5.45045,3.73114 10.2229,10.22629 12.29151,16.72837 2.047,6.43414 1.50818,20.24198 -1.05733,27.09529 -2.13757,5.71015 -10.29684,15.55911 -12.88979,15.55911 -2.1708,0 -0.85879,2.43397 5.31142,9.85345 9.93727,11.94926 11.30401,15.83968 8.00612,22.78947 -2.06921,4.36052 -5.91302,6.35708 -12.23877,6.35708 -6.54061,0 -8.18099,-1.4619 -20.62639,-18.38207 L 329,724.5224 322.75,724.5112 316.5,724.5 v 11.09887 c 0,8.29615 -0.4217,11.98755 -1.66996,14.61806 -3.21024,6.76507 -11.5718,9.26237 -17.96333,5.36501 z m 48.1777,-59.33588 c 4.82801,-5.61859 4.05089,-12.77176 -1.86383,-17.15613 -2.41386,-1.78929 -4.53564,-2.13794 -14.75,-2.42368 L 316.5,676.3325 v 11.66322 11.66322 l 13.08898,-0.32947 c 12.86494,-0.32383 13.12949,-0.37661 15.45543,-3.08341 z m 209.56792,59.67339 C 537.41841,751.29543 524.29291,738.09952 518.88453,720 c -2.44536,-8.18357 -2.44536,-24.81643 0,-33 5.3387,-17.86631 18.03513,-31.0624 34.54697,-35.90654 7.02363,-2.06055 22.74189,-2.0868 30.6084,-0.0511 6.26843,1.62214 15.17645,6.46237 18.59976,10.10632 4.6888,4.991 4.31544,13.82957 -0.80028,18.9453 -4.81165,4.81164 -10.73404,4.80589 -18.22103,-0.0177 -12.44413,-8.01731 -24.69178,-6.7339 -33.45663,3.50585 C 545.59336,688.9192 543.5,695.17814 543.5,703.5 c 0,8.32186 2.09336,14.5808 6.66172,19.9179 5.22447,6.10362 10.46363,8.52578 18.33828,8.47813 6.85718,-0.0415 10.0344,-1.23522 17.30419,-6.50143 7.23,-5.23738 16.45568,-3.1351 20.1189,4.58456 2.65382,5.59251 1.43288,10.05993 -4.182,15.30198 -11.17522,10.43315 -31.13686,14.93907 -47.12876,10.63831 z m 92.18622,-0.37897 C 640.43095,751.65793 640.5,752.23468 640.5,702.93201 v -44.6673 l 3.88235,-3.88236 c 3.47094,-3.47093 4.41039,-3.88235 8.86514,-3.88235 3.53882,0 5.75214,0.60517 7.63763,2.0883 4.96785,3.9077 5.61488,6.54222 5.61488,22.86204 V 690.5 h 16.5 16.5 v -14.53212 c 0,-16.55825 0.9788,-20.26517 6.18982,-23.44225 4.39979,-2.68247 10.74101,-2.65448 14.1953,0.0627 5.66427,4.45551 5.61488,3.99611 5.61488,52.22718 0,43.52658 -0.0418,44.4679 -2.0883,47.06964 -6.31943,8.03386 -18.05551,7.15363 -22.24174,-1.66819 C 699.83913,747.41241 699.5,743.63152 699.5,731.59887 V 716.5 H 683 666.5 l -0.004,15.75 c -0.003,13.85692 -0.23836,16.1348 -1.95578,18.95145 -3.72973,6.11697 -11.64944,8.05384 -17.74193,4.33903 z m 235,0 c -6.35161,-3.8728 -6.29894,-3.44401 -6.29481,-51.24082 0.005,-57.02206 -2.49307,-52.79966 31.2365,-52.79966 23.86309,0 29.93206,0.97698 37.92314,6.10484 7.884,5.05915 12.06102,11.7775 13.90463,22.36432 1.39803,8.02806 0.0861,18.3482 -3.13506,24.66227 -2.49585,4.89227 -8.43327,11.5752 -11.01074,12.39326 -1.05721,0.33555 -1.92221,0.97344 -1.92221,1.41754 0,0.4441 3.20022,4.80127 7.11161,9.68261 3.91138,4.88134 7.51138,9.91695 8,11.19026 2.27253,5.9221 -0.0424,13.06351 -5.07888,15.66797 -3.71303,1.92009 -10.29539,1.94958 -13.94462,0.0625 -1.54692,-0.79994 -7.7002,-7.99994 -13.67396,-16 L 914.05277,724.5 H 907.77638 901.5 l -0.004,11.75 c -0.003,9.88944 -0.31283,12.25693 -1.95578,14.95145 -3.72973,6.11697 -11.64944,8.05384 -17.74193,4.33903 z m 45.22939,-57.23517 c 5.11071,-2.32859 7.28454,-11.77262 3.84137,-16.68844 C 928.16684,677.75856 923.5336,676.5 912.03212,676.5 H 901.5 v 11.5 11.5 h 11.45295 c 6.7497,0 12.52971,-0.49061 14.07499,-1.19469 z m 101.81996,57.84173 c -16.6057,-4.24339 -29.69804,-16.55037 -35.51097,-33.38081 -3.35676,-9.71899 -3.38277,-28.7408 -0.0525,-38.37479 7.69667,-22.26528 25.48417,-34.9086 49.07087,-34.87957 11.3457,0.014 17.8379,1.54596 26.3922,6.22789 7.7189,4.22468 10.7549,8.36604 10.7459,14.65812 -0.017,12.08414 -10.7777,16.79026 -22.0397,9.63923 -11.4412,-7.26476 -22.4907,-6.85652 -31.0472,1.14709 -11.4259,10.68763 -12.7068,29.52984 -2.8628,42.11329 8.2402,10.53333 21.7174,11.7645 34.4185,3.14421 4.3435,-2.94789 6.8063,-3.9417 9.7684,-3.9417 9.4207,0 15.6717,10.48682 11.2955,18.94947 -1.8275,3.53409 -11.6522,10.19849 -19.2906,13.0854 -7.2034,2.72252 -23.2624,3.56071 -30.8876,1.61217 z M 13.689756,755.14714 c -1.270635,-0.7051 -3.18017,-2.60165 -4.2434113,-4.21457 -1.8373395,-2.7872 -1.9334929,-5.12676 -1.9397555,-47.19726 L 7.5,659.47063 10.92102,655.73531 14.34204,652 33.765424,651.69207 c 14.855306,-0.2355 20.988681,0.0551 26.078995,1.23562 19.541316,4.53193 34.141293,19.22095 38.217227,38.45031 6.235374,29.41714 -9.302869,56.3792 -36.692609,63.66924 -7.199084,1.91611 -44.266382,1.99377 -47.679281,0.0999 z M 57.5,728.8213 c 15.931211,-7.08365 20.032496,-30.6092 7.683057,-44.07111 -5.686997,-6.1993 -10.559661,-8.16429 -22.129951,-8.92432 L 33.5,675.19835 v 28.28452 28.28452 l 9.75,-0.4726 c 6.746196,-0.32701 11.136371,-1.08904 14.25,-2.47349 z m 83.41519,26.25729 c -1.69665,-0.73872 -4.05915,-2.5818 -5.25,-4.09572 -2.14607,-2.72828 -2.16516,-3.14213 -2.16145,-46.86773 0.004,-42.48381 0.0784,-44.23755 2.02189,-47.42532 3.64319,-5.97553 5.76449,-6.30974 37.97378,-5.98277 27.54822,0.27965 28.98608,0.3886 31.67864,2.40036 6.20777,4.63816 6.77035,14.30302 1.13878,19.56369 L 203.28849,675.5 H 181.39424 159.5 v 7.42058 7.42058 l 18.25,0.32942 c 20.44205,0.36899 22.11644,0.86718 25.2733,7.51977 1.9189,4.04378 1.50967,9.08419 -1.05537,12.99895 -2.93676,4.48206 -6.90558,5.3107 -25.43581,5.3107 H 159.5 v 7.5 7.5 h 21.04966 c 22.50173,0 25.06565,0.47114 28.38964,5.21679 2.00664,2.86489 2.0037,10.02587 -0.006,13.91165 -2.82708,5.46697 -5.39541,5.87568 -36.65146,5.83242 -21.40248,-0.0296 -29.0325,-0.36586 -31.36693,-1.38227 z m 274.8545,-0.0612 c -1.77666,-0.77236 -4.13748,-2.89225 -5.24626,-4.71086 -1.9397,-3.18148 -2.01595,-4.95191 -2.01595,-46.80655 0,-40.79978 0.11658,-43.69119 1.8782,-46.58004 3.67725,-6.03027 5.89569,-6.41996 36.54757,-6.41996 30.74744,0 32.99991,0.38155 36.54112,6.18982 2.37078,3.88855 2.59983,8.79912 0.59157,12.68267 -2.848,5.50743 -3.2116,5.59005 -26.96671,6.12751 l -22.09923,0.5 -0.29381,7.25 -0.29381,7.25 16.79381,0.0564 c 19.1985,0.0645 22.6431,0.84899 26.0983,5.94356 1.91009,2.81636 2.28716,4.42977 1.93045,8.26013 -0.25362,2.72336 -1.25449,5.67061 -2.33912,6.88802 -3.70059,4.15363 -7.35093,4.85191 -25.3637,4.85191 H 434.5 v 7.5 7.5 h 21.09887 c 17.1424,0 21.72216,0.29577 24.42273,1.57727 8.18101,3.88215 8.27792,16.52545 0.16458,21.4725 -2.96542,1.80814 -5.19553,1.9403 -32.18618,1.90735 -22.63745,-0.0276 -29.70872,-0.34351 -32.23031,-1.43971 z m 355,0 c -1.77666,-0.77236 -4.13748,-2.89225 -5.24626,-4.71086 -1.9397,-3.18148 -2.01595,-4.95191 -2.01595,-46.80655 0,-40.79978 0.11658,-43.69119 1.8782,-46.58004 3.67725,-6.03027 5.89569,-6.41996 36.54757,-6.41996 30.74744,0 32.99991,0.38155 36.54112,6.18982 2.39383,3.92637 2.5964,8.80576 0.53134,12.79914 -3.00656,5.81405 -3.91532,6.01106 -27.72822,6.01106 H 789.5 v 7.42058 7.42058 l 18.25,0.32942 c 15.93513,0.28764 18.6053,0.57023 21.05111,2.22792 5.72756,3.88195 7.32,11.4303 3.67326,17.41168 -3.27701,5.37492 -6.69234,6.18982 -25.94225,6.18982 H 789.5 v 7.5 7.5 h 21.09887 c 16.95756,0 21.73803,0.3033 24.35524,1.54525 8.30575,3.94134 7.96249,17.60236 -0.55295,22.00586 -4.02264,2.08019 -58.83568,2.05116 -63.63147,-0.0337 z m 472.62821,-0.78734 c -6.9169,-4.6208 -6.8948,-4.4579 -6.8948,-50.73007 0,-45.71335 0.011,-45.79861 6.3182,-50.42892 2.6758,-1.96429 4.3132,-2.0862 31.7576,-2.36439 33.6653,-0.34125 34.7421,-0.12624 38.1693,7.62156 1.7131,3.87279 1.819,5.0041 0.7897,8.43963 -0.6538,2.18203 -2.3454,5.03941 -3.7593,6.34973 -2.5451,2.35876 -2.7874,2.38239 -24.4246,2.38239 H 1263.5 v 7.5 7.5 l 16.75,0.002 c 18.4576,0.002 21.6131,0.77863 25.6789,6.32236 2.599,3.54376 2.6111,10.15923 0.026,14.10501 -3.1516,4.80999 -6.6247,5.57108 -25.4225,5.57108 h -17.0321 v 7.5 7.5 h 21.0497 c 22.5017,0 25.0656,0.47114 28.3896,5.21679 2.064,2.94671 1.9873,10.25237 -0.1454,13.86276 -3.3133,5.60896 -5.2624,5.92045 -37.0471,5.92045 -28.434,0 -29.0117,-0.0405 -32.3489,-2.26993 z M 626.71353,567.4555 c -17.09989,-2.29108 -29.43042,-14.11745 -33.10845,-31.75472 -0.66596,-3.19353 -1.10359,-17.29978 -1.10134,-35.5 0.004,-33.87378 0.15256,-34.64894 7.27933,-38.03082 4.39298,-2.0846 6.99997,-2.10401 11.25724,-0.0838 6.83454,3.24321 6.90426,3.5882 7.45969,36.91385 0.49235,29.54106 0.53824,30.07544 3,34.93155 3.04765,6.01185 7.37406,8.56845 14.5,8.56845 6.69592,0 11.38739,-2.62058 14.5,-8.09945 2.48029,-4.36586 2.50394,-4.641 3,-34.90055 0.35532,-21.67424 0.85988,-31.12864 1.74368,-32.67245 3.84774,-6.72119 13.40341,-8.599 19.15034,-3.76327 1.67611,1.41035 3.50812,4.22285 4.07115,6.25 1.36268,4.9063 1.32729,50.93829 -0.0468,60.81737 -1.90555,13.7004 -7.06795,23.5047 -15.75101,29.91397 -8.39991,6.20027 -22.8124,9.1706 -35.95387,7.40988 z M 19.584806,565.74845 c -1.878356,-0.96165 -4.240856,-3.31643 -5.25,-5.23285 C 12.636933,557.29125 12.5,553.79856 12.5,513.71594 c 0,-47.03147 -0.03852,-46.68068 5.614879,-51.12764 3.635019,-2.85931 11.135223,-2.85931 14.770242,0 5.658724,4.45115 5.6152,4.05081 5.611141,51.61204 -0.0036,41.67729 -0.09833,43.95479 -1.955778,47.00111 -3.651693,5.98898 -10.534053,7.83462 -16.955678,4.547 z m 406.976854,-0.0757 C 419.47129,561.87012 419.5,562.07929 419.5,514.23348 c 0,-46.44081 0.092,-47.30086 5.51368,-51.56558 1.94633,-1.53098 4.11194,-2.15749 7.37118,-2.13246 5.48956,0.0421 8.54871,1.55736 11.1688,5.53199 1.83872,2.78931 1.93348,5.13656 1.93975,48.04771 0.006,44.24185 -0.0338,45.16653 -2.08171,47.76998 -4.37956,5.56772 -10.82806,7.01724 -16.85004,3.78761 z M 86.114879,564.4117 c -5.658724,-4.45115 -5.6152,-4.05081 -5.611141,-51.61204 0.0036,-41.67729 0.09833,-43.95479 1.955778,-47.00111 3.575898,-5.86467 12.540436,-8.15986 18.941704,-4.84963 3.91206,2.023 6.37805,5.09605 25.09878,31.27741 l 16.5,23.07561 0.5,-23.15097 c 0.42359,-19.61309 0.77002,-23.64504 2.26693,-26.38404 3.18415,-5.82627 9.82304,-7.74166 16.25467,-4.68966 6.43732,3.05471 6.47882,3.38525 6.47466,51.57386 -0.004,41.49158 -0.0889,43.48851 -1.99086,46.60801 -2.43248,3.98959 -7.52635,7.23211 -11.36925,7.23712 -6.69877,0.009 -9.75368,-3.18143 -29.85854,-31.18058 L 106,508.46862 l -0.5,24.76569 c -0.34492,17.08417 -0.88575,25.43951 -1.74368,26.93814 -3.60768,6.30186 -12.348882,8.40238 -17.641441,4.23925 z m 141.560081,0.68901 c -7.69973,-1.94932 -21.58587,-9.11191 -24.5924,-12.68496 -4.72901,-5.62011 -2.89115,-16.15345 3.38471,-19.39882 4.93289,-2.5509 8.91546,-1.85486 16.91428,2.95615 11.02006,6.62818 21.0217,8.08469 26.9591,3.92598 1.69113,-1.18452 2.19348,-2.38483 1.96554,-4.69649 -0.39926,-4.04914 -3.9026,-6.08099 -17.12442,-9.93171 -12.74272,-3.71118 -19.39934,-6.82334 -23.8595,-11.155 -6.00749,-5.8344 -7.3232,-9.72219 -7.31525,-21.61586 0.006,-9.4459 0.27594,-11.01099 2.68577,-15.59002 3.26011,-6.19465 8.39024,-10.85169 15.76158,-14.30807 4.87837,-2.28744 6.80901,-2.59864 16.04563,-2.58639 11.52543,0.0153 17.04415,1.38997 27.39711,6.82444 6.72519,3.53018 9.59369,7.40291 9.59915,12.9597 0.007,7.42409 -4.99025,12.70034 -12.02949,12.70034 -1.7229,0 -6.76663,-1.8 -11.20828,-4 -6.52905,-3.23391 -9.15189,-4 -13.69461,-4 -6.5191,0 -10.06388,1.9435 -10.06388,5.51775 0,3.95393 3.46865,6.05089 17.32311,10.47262 19.03543,6.07526 25.72933,10.33921 30.43982,19.38989 2.28143,4.38351 2.66232,6.34206 2.64868,13.61974 -0.0131,6.9874 -0.47285,9.49413 -2.58358,14.08648 -3.23506,7.03855 -8.07749,11.90997 -15.40073,15.49289 -5.06074,2.47599 -7.0268,2.83658 -16.82874,3.08649 -6.94095,0.17697 -13.09336,-0.22204 -16.4236,-1.06515 z m 110.45159,-0.80572 C 332.6973,560.24843 332.5,558.71385 332.5,520.53212 V 485.5 h -11.1 -11.1 l -3.4,-3.4 c -2.98033,-2.98033 -3.4,-4.03132 -3.4,-8.51469 0,-4.42936 0.45867,-5.61518 3.42316,-8.85 L 310.34632,461 h 35.01118 35.01117 l 2.99301,2.86748 c 6.15435,5.89624 6.54908,13.06792 1.02338,18.59361 -3.01266,3.01266 -3.13285,3.03891 -13.91488,3.03891 h -10.87596 l -0.29711,35.75 c -0.32794,39.45952 -0.48684,40.48683 -6.76438,43.73307 -4.26839,2.20728 -10.94965,1.88816 -14.40618,-0.68808 z m 175.27786,0.54047 C 508.00486,561.48348 508.0372,561.71532 507.5,522.5 L 507,486 496.16182,485.71527 c -12.22051,-0.32104 -14.49406,-1.23463 -17.18512,-6.90562 -3.00557,-6.33377 -0.0851,-14.32185 6.19558,-16.94608 4.96165,-2.07311 66.2513,-1.97157 70.28908,0.11645 4.82156,2.49332 7.03864,6.19595 7.03864,11.75484 0,4.3133 -0.44637,5.41151 -3.4,8.36514 l -3.4,3.4 h -11.1 -11.1 v 35.54966 c 0,38.56473 -0.0549,38.98855 -5.61488,43.36204 -3.25646,2.56154 -10.68681,2.77898 -14.48071,0.42376 z M 744.11488,564.4117 C 738.55488,560.03821 738.5,559.61439 738.5,521.04966 V 485.5 h -11.1 -11.1 l -3.4,-3.4 c -2.98033,-2.98033 -3.4,-4.03132 -3.4,-8.51469 0,-4.42936 0.45867,-5.61518 3.42316,-8.85 L 716.34632,461 H 751.5 786.65368 l 3.36272,3.66936 c 4.27296,4.66261 5.25277,9.40748 2.9463,14.268 -0.94787,1.99748 -2.67724,4.17873 -3.84305,4.84722 C 787.95384,484.45306 782.05,485.225 776,485.5 l -11,0.5 -0.5,36.5 c -0.53969,39.39747 -0.49555,39.08937 -6.07209,42.38351 -3.94122,2.32814 -11.05145,2.09376 -14.31303,-0.47181 z M 32.162223,354.00965 C 22.761299,350.41922 14.426077,341.15296 12.490254,332.14033 11.704649,328.48278 11.474697,283.73107 11.693082,177 L 12,27 14.293312,22.70494 C 17.827968,16.085011 23.12299,10.832567 29.339456,7.7797821 36.798182,4.1169481 48.42963,3.8502177 55.67567,7.1758444 61.928525,10.045641 68.528619,16.289456 71.539402,22.183238 L 74,27 V 180.5 334 l -2.256139,4.2222 c -3.377888,6.32146 -7.502578,10.55613 -13.425009,13.78298 -4.48306,2.4426 -6.654522,2.94294 -13.818852,3.18409 -5.683133,0.1913 -9.771824,-0.19962 -12.337777,-1.17962 z m 379.612357,-0.10581 c -5.71905,-2.10348 -13.79761,-9.57489 -17.07989,-15.79624 L 392,333 391.73734,181.82134 C 391.47641,31.633921 391.4881,30.606825 393.52069,25.174246 396.24907,17.881995 402.26595,11.253222 409.28556,7.8061504 414.12353,5.4304046 416.22703,5.0038889 423,5.0253547 433.44525,5.0584593 439.69802,7.7479258 446.41401,15.096294 455.19417,24.70319 454.5,10.458931 454.5,181.01842 v 151.16214 l -3.04683,6.09724 c -3.3029,6.6097 -7.61386,10.9704 -14.23097,14.39518 -5.53414,2.86427 -19.20838,3.52567 -25.44762,1.23086 z M 793,352.71604 c -6.79896,-3.29037 -12.72057,-9.29821 -15.86267,-16.09364 L 775,332 V 180 28 l 2.77978,-5.660544 c 3.20428,-6.52495 8.97189,-12.142636 15.59782,-15.1923595 3.56812,-1.6423061 6.56108,-2.1265882 13.1224,-2.123299 7.30838,0.00366 9.22723,0.3857342 13.68743,2.7253707 6.67358,3.5006818 11.62009,8.6414858 15.0656,15.6573518 L 838,29 l 0.29063,146.5 c 0.29681,149.6197 0.17716,155.21585 -3.47233,162.41022 -2.91638,5.74915 -8.06593,11.13455 -13.45408,14.07026 -4.47726,2.43942 -6.76967,2.98192 -13.86422,3.28098 -7.73342,0.32599 -9.04111,0.0964 -14.5,-2.54542 z m 380.7746,1.1878 c -5.7191,-2.10348 -13.7976,-9.57489 -17.0799,-15.79624 L 1154,333 1153.7373,181.82134 c -0.2609,-150.187419 -0.2492,-151.214515 1.7834,-156.647094 2.7284,-7.292251 8.7453,-13.921024 15.7649,-17.3680956 4.9121,-2.4121542 6.9078,-2.8041806 14.2144,-2.7921212 7.2662,0.011993 9.2414,0.4031214 13.6076,2.6946854 2.8092,1.4743609 7.1553,4.9581564 9.658,7.7417684 8.372,9.311674 7.7344,-4.336483 7.7344,165.567937 v 151.16214 l -3.0468,6.09724 c -3.3029,6.6097 -7.6139,10.9704 -14.231,14.39518 -5.5341,2.86427 -19.2084,3.52567 -25.4476,1.23086 z m 98.9789,-178.5691 c -5.6013,-1.25447 -15.9036,-8.27189 -19.8964,-13.55243 -5.5733,-7.37065 -7.6079,-14.43333 -7.1392,-24.78231 0.5077,-11.2094 3.6244,-18.1692 11.4513,-25.57155 8.2715,-7.82283 12.6748,-9.42933 25.8308,-9.42396 9.5553,0.004 11.6278,0.31573 15.78,2.37424 12.4839,6.189 20.6374,18.1545 21.4969,31.54695 0.61,9.50431 -1.0217,16.09583 -5.8235,23.52507 -8.6398,13.36746 -25.0412,19.61495 -41.6999,15.88399 z M 508.73207,80.500274 C 502.34824,79.150936 492.80297,73.667501 488.83514,69.07016 478.33992,56.909855 476.08559,40.144928 483.0876,26.327123 497.1669,-1.4570287 536.84835,-0.8820005 550.72589,27.307277 553.7313,33.412134 554,34.741048 554,43.5 c 0,8.758952 -0.2687,10.087866 -3.27411,16.192723 -7.67967,15.599624 -25.30815,24.334371 -41.99382,20.807551 z M 1274,80.090977 c -11.1959,-2.77419 -20.0769,-9.956421 -25.1923,-20.373398 C 1246.2721,54.554019 1246,52.982576 1246,43.5 c 0,-9.577632 0.2564,-11.022282 2.9192,-16.445527 3.8555,-7.852491 10.161,-13.986412 18.3801,-17.8799323 6.0325,-2.8577341 7.5981,-3.1683299 15.7007,-3.1148682 6.9581,0.04591 10.0825,0.5457454 13.7714,2.2030961 7.4477,3.3461194 13.484,8.1616734 17.145,13.6777244 14.8236,22.3345 3.4136,52.154028 -22.269,58.199007 -6.8134,1.603696 -11.0262,1.592112 -17.6474,-0.04852 z"
     id="path1428"
     inkscape:connector-curvature="0" />
</svg>
